<?xml version="1.0" encoding="UTF-8" standalone="no"?>
<svg
   xmlns:dc="http://purl.org/dc/elements/1.1/"
   xmlns:cc="http://creativecommons.org/ns#"
   xmlns:rdf="http://www.w3.org/1999/02/22-rdf-syntax-ns#"
   xmlns:svg="http://www.w3.org/2000/svg"
   xmlns="http://www.w3.org/2000/svg"
   xmlns:sodipodi="http://sodipodi.sourceforge.net/DTD/sodipodi-0.dtd"
   xmlns:inkscape="http://www.inkscape.org/namespaces/inkscape"
   width="16"
   height="16"
   version="1.1"
   viewBox="0 0 16 16"
   id="svg3753"
   sodipodi:docname="icon_console.svg"
   inkscape:version="0.92.3 (2405546, 2018-03-11)">
  <metadata
     id="metadata3759">
    <rdf:RDF>
      <cc:Work
         rdf:about="">
        <dc:format>image/svg+xml</dc:format>
        <dc:type
           rdf:resource="http://purl.org/dc/dcmitype/StillImage" />
        <dc:title></dc:title>
      </cc:Work>
    </rdf:RDF>
  </metadata>
  <defs
     id="defs3757" />
  <sodipodi:namedview
     pagecolor="#ffffff"
     bordercolor="#666666"
     borderopacity="1"
     objecttolerance="10"
     gridtolerance="10"
     guidetolerance="10"
     inkscape:pageopacity="0"
     inkscape:pageshadow="2"
     inkscape:window-width="1920"
     inkscape:window-height="1017"
     id="namedview3755"
     showgrid="false"
     inkscape:zoom="45.254834"
     inkscape:cx="3.9723311"
     inkscape:cy="8.1002088"
     inkscape:window-x="-8"
     inkscape:window-y="-8"
     inkscape:window-maximized="1"
     inkscape:current-layer="g3751" />
  <g
     transform="translate(0 -1036.4)"
     id="g3751">
    <rect
       x="29"
       y="1042.4"
       width="1"
       height="1"
       id="rect3747"
       fill="#fefeff" />
    <g
       id="g3793">
      <path
         d="M 3 1 C 1.8954 1 1 1.8954 1 3 L 1 13 C 1 14.1046 1.89543 15 3 15 L 13 15 C 14.1046 15 15 14.1046 15 13 L 15 3 C 15 1.8954 14.10457 1 13 1 L 3 1 z M 3 3 L 13 3 L 13 13 L 3 13 L 3 3 z "
         transform="translate(0,1036.4)"
         id="path3805"
         style="fill:#a5efac;fill-opacity:1" />
      <path
         d="m 3.7625631,1040.7869 2.8284271,2.8284 0.7071068,-0.7071 -2.8284271,-2.8284 z"
         id="path3749"
         inkscape:connector-curvature="0"
         style="fill:#a5efac;fill-opacity:1" />
    </g>
    <path
       inkscape:connector-curvature="0"
       d="m 4.4696699,1045.7366 2.8284271,-2.8284 -0.7071068,-0.7071 -2.8284271,2.8284 z"
       id="path3749-2"
       style="fill:#a5efac;fill-opacity:1" />
  </g>
</svg>
